# xmcd
#
# Track frame offsets: 
#        150
#        17190
#        32814
#        44065
#        60626
#        79543
#        93174
#        106049
#        121092
#        138095
#        153705
#        168144
#        184080
#
# Disc length: 2685 seconds
#
# Revision: 1
# Processed by: cddbd v1.5.2PL0 Copyright (c) Steve Scherf et al.
# Submitted via: ExactAudioCopy v1.2
#
DISCID=9b0a7b0d
DTITLE=Wellbad - The Rotten
DYEAR=2017
DGENRE=Blues Rock
TTITLE0=Wake-Up Call
TTITLE1=Save Your Tears For The Well
TTITLE2=The Rotten
TTITLE3=Different State Of Mind
TTITLE4=Patience Of The Numb
TTITLE5=Brand New Yesterday
TTITLE6=The Oldest Feeling
TTITLE7=Free From The World
TTITLE8=Weak God
TTITLE9=I Testify
TTITLE10=Sally Kruger
TTITLE11=Mountain
TTITLE12=Sold-Out Show
EXTD=
EXTT0=
EXTT1=
EXTT2=
EXTT3=
EXTT4=
EXTT5=
EXTT6=
EXTT7=
EXTT8=
EXTT9=
EXTT10=
EXTT11=
EXTT12=
PLAYORDER=
